<svg width="28.000000" height="18.000000" viewBox="0 0 28 18" fill="none" xmlns="http://www.w3.org/2000/svg" xmlns:xlink="http://www.w3.org/1999/xlink">
	<desc>
			Created with Pixso.
	</desc>
	<defs>
		<clipPath id="clip5_178">
			<rect id="Frame" rx="0.000000" width="27.000000" height="17.000000" transform="translate(0.500000 0.500000)" fill="white" fill-opacity="0"/>
		</clipPath>
	</defs>
	<rect id="Frame" rx="0.000000" width="27.000000" height="17.000000" transform="translate(0.500000 0.500000)" fill="#FFFFFF" fill-opacity="0"/>
	<g clip-path="url(#clip5_178)">
		<path id="Vector" d="M4.03 0.17L26.8 0.17L26.8 17.81L4.03 17.81L4.03 0.17Z" fill="#69B42E" fill-opacity="1.000000" fill-rule="evenodd"/>
		<path id="Vector" d="M0 0L0 18L28 18L28 0L0 0ZM4.11 17.7L4.11 0.24L26.69 0.24L26.69 17.7L4.11 17.7Z" fill="#000000" fill-opacity="1.000000" fill-rule="nonzero"/>
		<path id="Vector" d="M0.56 16C0.56 14.78 1.43 14.48 2.1 14.48C2.7 14.48 3.6 14.74 3.6 16L3.6 17.66L0.56 17.66L0.56 16ZM2.84 16.5L2.84 16.27C2.84 16.01 2.76 15.7 2.08 15.7C1.37 15.7 1.28 15.99 1.28 16.27L1.28 16.5L2.84 16.5Z" fill="#FFFFFF" fill-opacity="1.000000" fill-rule="nonzero"/>
		<path id="Vector" d="M1.33 13.12L1.84 13.12L1.84 13.1C1.56 13.01 1.28 12.78 1.28 12.42C1.28 12.36 1.28 12.3 1.3 12.24L2.21 12.24C2.19 12.31 2.17 12.39 2.17 12.46C2.17 12.79 2.38 13.05 2.78 13.05L3.6 13.05L3.6 14.13L1.33 14.13L1.33 13.12Z" fill="#FFFFFF" fill-opacity="1.000000" fill-rule="nonzero"/>
		<path id="Vector" d="M2.77 12.34L2.77 11.4L3.61 11.4L3.61 12.34L2.77 12.34Z" fill="#FFFFFF" fill-opacity="1.000000" fill-rule="nonzero"/>
		<path id="Vector" d="M2.51 9.95L2.51 9.93L0.57 9.45L0.57 8.34L2.51 7.88L2.51 7.86L0.57 7.49L0.57 6.46L3.6 7.19L3.6 8.43L1.62 8.93L1.62 8.95L3.6 9.42L3.6 10.69L0.57 11.4L0.57 10.31L2.51 9.95Z" fill="#FFFFFF" fill-opacity="1.000000" fill-rule="nonzero"/>
		<path id="Vector" d="M0.56 3.67L1.28 3.67L1.28 5.16L1.72 5.16L1.72 3.74L2.41 3.74L2.41 5.16L2.89 5.16L2.89 3.64L3.6 3.64L3.6 6.31L0.56 6.31L0.56 3.67Z" fill="#FFFFFF" fill-opacity="1.000000" fill-rule="nonzero"/>
		<path id="Vector" d="M0.56 1.47C0.56 0.53 1.07 0.35 1.35 0.35C1.7 0.35 1.98 0.59 2.05 0.97L2.07 0.97C2.11 0.66 2.31 0.28 2.79 0.28C3.56 0.28 3.6 1.15 3.6 1.53L3.6 3.29L0.56 3.29L0.56 1.47ZM1.77 2.19L1.77 1.92C1.77 1.52 1.56 1.48 1.47 1.48C1.34 1.48 1.18 1.58 1.18 1.9L1.18 2.19L1.77 2.19ZM2.99 2.19L2.99 1.9C2.99 1.53 2.78 1.47 2.67 1.47C2.37 1.47 2.37 1.83 2.37 1.92L2.37 2.19L2.99 2.19Z" fill="#FFFFFF" fill-opacity="1.000000" fill-rule="nonzero"/>
		<path id="Vector" d="M10.63 8.08L15.4 5.46L20.17 8.08C20.17 8.08 20.81 10.35 18.28 12.25C15.76 14.14 15.05 14.12 12.51 12.25C9.96 10.37 10.63 8.08 10.63 8.08Z" fill="#000000" fill-opacity="1.000000" fill-rule="nonzero"/>
		<path id="Vector" d="M15.38 4.45L18.67 6.23C18.75 6.01 18.79 5.79 18.79 5.56C18.79 4.16 17.27 3.03 15.4 3.03C13.52 3.03 12 4.16 12 5.56C12 5.78 12.04 6.01 12.11 6.22L15.38 4.45Z" fill="#000000" fill-opacity="1.000000" fill-rule="nonzero"/>
		<path id="Vector" d="M21.12 9.6L23.75 11.13L18.82 16.91L21.12 9.6Z" fill="#000000" fill-opacity="1.000000" fill-rule="nonzero"/>
		<path id="Vector" d="M21.26 8.12L20.96 6.85L26.03 8.3L22.89 9.92L23.32 8.6L21.26 8.12Z" fill="#000000" fill-opacity="1.000000" fill-rule="nonzero"/>
		<path id="Vector" d="M20.67 6.03L20 5.13L24.49 3.74L23.38 7.17L22.91 5.59L20.67 6.03Z" fill="#000000" fill-opacity="1.000000" fill-rule="nonzero"/>
		<path id="Vector" d="M19.43 4.44L18.48 3.48L19.72 2.25L18.37 1.43L21.97 1.43L19.43 4.44Z" fill="#000000" fill-opacity="1.000000" fill-rule="nonzero"/>
		<path id="Vector" d="M9.67 9.6L7.04 11.13L11.97 16.91L9.67 9.6Z" fill="#000000" fill-opacity="1.000000" fill-rule="nonzero"/>
		<path id="Vector" d="M9.53 8.12L9.83 6.85L4.75 8.3L7.9 9.92L7.47 8.6L9.53 8.12Z" fill="#000000" fill-opacity="1.000000" fill-rule="nonzero"/>
		<path id="Vector" d="M10.12 6.03L10.79 5.13L6.3 3.74L7.41 7.17L7.88 5.59L10.12 6.03Z" fill="#000000" fill-opacity="1.000000" fill-rule="nonzero"/>
		<path id="Vector" d="M11.36 4.44L12.3 3.48L11.06 2.25L12.42 1.43L8.82 1.43L11.36 4.44Z" fill="#000000" fill-opacity="1.000000" fill-rule="nonzero"/>
		<path id="Vector" d="M14 11.39L16.8 11.39L17.02 10.76L13.78 10.76L14 11.39ZM14.73 13.55C15.19 13.69 15.61 13.69 16.06 13.56L16.22 13.11L14.58 13.11L14.73 13.55ZM14.4 12.57L16.4 12.57L16.62 11.94L14.18 11.94L14.4 12.57ZM13.59 10.22L17.2 10.22L17.42 9.58L13.38 9.58L13.59 10.22ZM17.13 6.41L16.74 8.09L16.72 8.09L16.1 6.4L14.74 6.4L14.15 8.09L14.13 8.09L13.67 6.41L12.51 7.05L13.19 9.04L14.79 9.04L15.39 7.31L15.41 7.31L16.01 9.04L17.6 9.04L18.28 7.05L17.13 6.41Z" fill="#FFFFFF" fill-opacity="1.000000" fill-rule="nonzero"/>
	</g>
</svg>
