<svg width="160.000000" height="160.000000" viewBox="0 0 160 160" fill="none" xmlns="http://www.w3.org/2000/svg" xmlns:xlink="http://www.w3.org/1999/xlink">
	<desc>
			Created with Pixso.
	</desc>
	<defs>
		<clipPath id="clip9_1521">
			<rect width="160.000000" height="160.000000" fill="white" fill-opacity="0"/>
		</clipPath>
	</defs>
	<rect width="160.000000" height="160.000000" fill="#FFFFFF" fill-opacity="0"/>
	<g clip-path="url(#clip9_1521)">
		<path d="M79.98 156.57C40.24 148.61 11.42 111.29 11.42 67.79L11.42 28.21C11.42 26.61 11.95 25.05 12.91 23.77C13.87 22.49 15.24 21.55 16.79 21.12L75.78 4.02C78.52 3.22 81.45 3.22 84.21 4.02L143.2 21.12C144.75 21.58 146.1 22.49 147.08 23.77C148.04 25.05 148.57 26.61 148.57 28.21L148.57 67.79C148.54 111.31 119.73 148.66 79.98 156.57Z" fill="#69B42E" fill-opacity="1.000000" fill-rule="nonzero"/>
		<path d="M79.8745 3.42889L79.8745 156.548C40.1914 148.546 11.4287 111.251 11.4287 67.7975L11.4287 28.2104C11.4287 26.6104 11.9541 25.0562 12.9141 23.7762C13.874 22.4963 15.2451 21.5592 16.7993 21.1249L75.7837 4.02844C77.1172 3.6394 78.4941 3.43958 79.8745 3.42889Z" clip-rule="evenodd" fill="#FFFFFF" fill-opacity="0.150000" fill-rule="evenodd"/>
		<path d="M61.71 44.5C61.71 41.97 63.76 39.93 66.28 39.93L93.71 39.93C96.23 39.93 98.28 41.97 98.28 44.5L98.28 103.93C98.28 106.45 96.23 108.5 93.71 108.5L66.28 108.5C63.76 108.5 61.71 106.45 61.71 103.93L61.71 44.5ZM82.05 104.61C82.05 105.75 81.13 106.67 80 106.67C78.86 106.67 77.94 105.75 77.94 104.61C77.94 103.48 78.86 102.56 80 102.56C81.13 102.56 82.05 103.48 82.05 104.61ZM66.71 42.21L71.07 42.21L71.07 43.13C71.07 43.88 71.68 44.5 72.44 44.5L86.61 44.5C87.37 44.5 87.98 43.88 87.98 43.13L87.98 42.21L93.28 42.21C94.78 42.21 96 43.43 96 44.93L96 98.92C96 100.43 94.78 101.64 93.28 101.64L66.71 101.64C65.21 101.64 64 100.43 64 98.92L64 44.93C64 43.43 65.21 42.21 66.71 42.21Z" fill="#FFFFFF" fill-opacity="1.000000" fill-rule="evenodd"/>
		<path d="M71.07 42.21L66.71 42.21C65.21 42.21 64 43.43 64 44.93L64 98.92C64 100.43 65.21 101.64 66.71 101.64L93.28 101.64C94.78 101.64 96 100.43 96 98.92L96 44.93C96 43.43 94.78 42.21 93.28 42.21L87.98 42.21L87.98 43.13C87.98 43.88 87.37 44.5 86.61 44.5L72.44 44.5C71.68 44.5 71.07 43.88 71.07 43.13L71.07 42.21Z" fill="#FFFFFF" fill-opacity="0.350000" fill-rule="evenodd"/>
	</g>
</svg>
