<svg width="170.000000" height="31.716431" viewBox="0 0 170 31.7164" fill="none" xmlns="http://www.w3.org/2000/svg" xmlns:xlink="http://www.w3.org/1999/xlink">
	<desc>
			Created with Pixso.
	</desc>
	<defs/>
	<path id="Vector" d="M68.37 14.58C68.37 9.7 66.2 3.39 57.32 3.39L45.27 3.39L45.27 25.58L57.32 25.58C66.51 25.58 68.37 18.99 68.37 14.58L68.37 14.58ZM53.68 20.03L53.68 8.64L55.38 8.64C57.41 8.64 59.52 9.36 59.52 14.47C59.52 19.59 57.26 20.06 55.38 20.06L53.68 20.03ZM78.02 19.56C78.02 16.71 79.91 15.15 82.25 15.15C82.8 15.17 83.34 15.25 83.87 15.41L83.87 8.75C83.45 8.65 83.02 8.6 82.59 8.59C79.96 8.59 78.26 10.65 77.66 12.74L77.52 12.74L77.52 8.97L70.14 8.97L70.14 25.58L78.02 25.58L78.02 19.56ZM90.7 19.48L83.91 19.48L83.91 25.62L90.75 25.62L90.71 19.48L90.7 19.48ZM103.95 25.58L107.41 11.13L107.62 11.13L111.25 25.58L120.3 25.58L125.57 3.45L118.03 3.45L115.37 17.59L115.26 17.59L111.85 3.45L103.78 3.45L100.3 17.59L100.18 17.59L97.54 3.45L89.66 3.45L94.77 25.58L103.95 25.58L103.95 25.58ZM146.18 20.35L135.25 20.35L135.25 16.89L145.54 16.89L145.54 11.83L135.25 11.83L135.25 8.62L146.01 8.62L146.01 3.39L126.83 3.39L126.83 25.58L146.23 25.58L146.18 20.35L146.18 20.35ZM169.95 19.63C169.95 16.15 167.18 14.69 165.01 14.37L165.01 14.23C166.24 14.07 167.37 13.47 168.19 12.53C169.01 11.59 169.47 10.39 169.47 9.13C169.47 7.07 168.22 3.36 161.35 3.36L148.15 3.36L148.15 25.58L160.92 25.58C163.72 25.58 170 25.27 170 19.66L169.95 19.63L169.95 19.63ZM156.12 7.89L158.29 7.89C160.61 7.89 161.27 9.1 161.27 10.02C161.27 10.66 160.99 12.16 158.1 12.16L156.12 12.16L156.12 7.89L156.12 7.89ZM156.12 21.08L156.12 16.54L158.07 16.54C158.77 16.54 161.4 16.54 161.4 18.79C161.4 19.59 160.95 21.08 158.25 21.08L156.12 21.08ZM14.51 9.77L20.93 6.15L27.38 9.8C27.54 9.35 27.63 8.89 27.63 8.42C27.63 5.57 24.63 3.23 20.96 3.23C17.28 3.23 14.28 5.55 14.28 8.42C14.28 8.87 14.36 9.33 14.51 9.77L14.51 9.77ZM32.42 13.67L36.47 14.66L35.62 17.37L41.79 14.03L31.83 11.06L32.42 13.67ZM27.63 31.71L37.31 19.85L32.15 16.7L27.63 31.71L27.63 31.71ZM26.98 4.15L28.83 6.12L33.8 0L26.76 0L29.38 1.63L26.97 4.15L26.98 4.15ZM31.25 9.38L35.67 8.49L36.58 11.72L38.77 4.7L29.94 7.55L31.26 9.38L31.25 9.38ZM4.47 19.85L14.15 31.71L9.65 16.7L4.47 19.85L4.47 19.85ZM5.32 14.66L9.37 13.67L9.95 11.06L0 14.03L6.17 17.37L5.32 14.66L5.32 14.66ZM6.13 8.49L10.53 9.38L11.85 7.55L3.03 4.7L5.22 11.72L6.13 8.49L6.13 8.49ZM14.82 4.15L12.38 1.63L15.07 0L8.02 0L13 6.16L14.82 4.15L14.82 4.15ZM17.45 10.18L18.33 13.52L18.38 13.52L19.57 9.96L22.34 9.96L23.6 13.52L23.64 13.52L24.35 10.23L20.93 8.21L17.45 10.18ZM30.24 13.6L26.64 11.52L25.34 15.5L22.12 15.5L20.93 11.85L20.88 11.85L19.66 15.5L16.44 15.5L15.13 11.53L11.54 13.59C11.54 13.59 10.23 18.28 15.22 22.13C16.49 23.22 17.92 24.11 19.45 24.77L19.23 24.1L22.54 24.1L22.32 24.81C23.86 24.16 25.29 23.27 26.55 22.17C31.5 18.24 30.26 13.6 30.26 13.6L30.24 13.6L30.24 13.6ZM22.91 22.95L18.85 22.95L18.42 21.61L23.35 21.61L22.91 22.95L22.91 22.95ZM23.75 20.47L18.07 20.47L17.64 19.13L24.18 19.13L23.75 20.47ZM24.56 17.98L17.25 17.98L16.81 16.64L24.99 16.64L24.56 17.98Z" fill="#69B42E" fill-opacity="1.000000" fill-rule="nonzero"/>
</svg>
